<svg width="173" height="61" viewBox="0 0 173 61" fill="none" xmlns="http://www.w3.org/2000/svg">
<path d="M25.5593 57.9071C25.4869 57.8343 25.449 57.772 25.449 57.6992C25.449 57.6264 25.4869 57.5398 25.5455 57.467L25.6421 57.3457C25.7145 57.2591 25.787 57.2244 25.8732 57.2244C25.9353 57.2244 26.0077 57.2487 26.0939 57.3111C26.5457 57.6541 27.0803 57.765 27.7011 57.765C28.4322 57.765 28.9081 57.5328 28.9081 56.9576C28.9081 56.3719 28.3736 56.1363 27.5562 56.0289C26.4733 55.8833 25.5593 55.5888 25.5593 54.3135C25.5593 53.409 26.4009 52.6744 27.739 52.6744C28.5805 52.6744 29.1634 52.9204 29.6531 53.3709C29.7255 53.4437 29.7635 53.5165 29.7635 53.5927C29.7635 53.6655 29.7255 53.7521 29.6669 53.8249L29.5462 53.96C29.4738 54.0328 29.4013 54.0709 29.3151 54.0709C29.2427 54.0709 29.1703 54.0467 29.0944 53.9843C28.6805 53.6551 28.2667 53.5684 27.6942 53.5684C26.8182 53.5684 26.5354 53.9358 26.5354 54.3412C26.5354 54.9165 26.9872 55.0378 27.8735 55.1729C28.8978 55.3323 29.9187 55.6615 29.9187 56.8987C29.9187 57.9036 29.1392 58.6626 27.7735 58.6626C26.7768 58.6556 26.0836 58.3853 25.5593 57.9071Z" fill="white"/>
<path d="M31.4568 56.0742V53.1251C31.4568 52.9311 31.5775 52.8063 31.7741 52.8063H32.1396C32.3328 52.8063 32.4569 52.9276 32.4569 53.1251V56.1712C32.4569 57.2489 32.957 57.7757 33.8089 57.7757C34.9159 57.7757 35.6126 57.0653 35.6126 55.8177V53.1251C35.6126 52.9172 35.7333 52.8063 35.9299 52.8063H36.2955C36.4886 52.8063 36.6128 52.9276 36.6128 53.1251V57.1658C36.6128 57.4603 36.7231 57.741 36.8438 57.9732C36.9404 58.1569 36.9301 58.292 36.7335 58.389L36.4645 58.5242C36.2955 58.6108 36.161 58.5866 36.0506 58.4376C35.8678 58.1915 35.7471 57.8242 35.723 57.5678C35.2953 58.2158 34.5642 58.6559 33.7261 58.6559C32.319 58.6559 31.4568 57.8242 31.4568 56.0742Z" fill="white"/>
<path d="M38.2784 56.9403C38.2784 55.8868 39.082 55.1037 40.665 55.1037C41.2858 55.1037 41.8583 55.2007 42.3584 55.3982V55.2527C42.3584 53.9913 41.6893 53.5512 40.8478 53.5512C40.2374 53.5512 39.7407 53.6621 39.2165 54.0294C39.1441 54.0779 39.082 54.1022 39.0096 54.1022C38.9234 54.1022 38.8509 54.064 38.7785 53.9809L38.6578 53.8353C38.5957 53.7626 38.5612 53.6898 38.5612 53.6135C38.5612 53.5269 38.6095 53.4541 38.6957 53.3814C39.3407 52.8546 39.9994 52.671 40.9237 52.671C42.2135 52.671 43.3344 53.468 43.3344 55.1175V57.1621C43.3344 57.4567 43.4448 57.7374 43.5655 57.9695C43.6621 58.1532 43.6517 58.2884 43.4551 58.3854L43.1861 58.5205C43.0171 58.6072 42.8826 58.5829 42.7723 58.4339C42.5895 58.1879 42.4688 57.8448 42.4446 57.5883C42.079 58.1636 41.372 58.6522 40.3236 58.6522C39.0199 58.6557 38.2784 57.9453 38.2784 56.9403ZM42.3584 56.2091V56.1364C41.8238 55.9769 41.3582 55.9146 40.8099 55.9146C39.6407 55.9146 39.251 56.2923 39.251 56.9195C39.251 57.5918 39.7856 57.7893 40.4201 57.7893C41.6169 57.7859 42.3239 57.124 42.3584 56.2091Z" fill="white"/>
<path d="M48.0728 60.5755V53.1215C48.0728 52.9274 48.1935 52.8026 48.3901 52.8026H48.5832C48.766 52.8026 48.8867 52.8893 48.935 53.0729C48.9971 53.3051 49.0212 53.5269 49.0316 53.7348C49.4834 53.0868 50.2145 52.671 51.1009 52.671C52.6839 52.671 53.7427 53.9185 53.7427 55.6824C53.7427 57.4324 52.6459 58.6557 51.0629 58.6557C50.2111 58.6557 49.5144 58.2641 49.0661 57.6646V60.579C49.0661 60.7869 48.9454 60.8978 48.7488 60.8978H48.3832C48.1935 60.8943 48.0728 60.773 48.0728 60.5755ZM52.7391 55.717C52.7391 54.3205 52.0562 53.5616 51.0215 53.5616C49.8903 53.5616 49.073 54.2477 49.073 55.4952V55.8141C49.073 57.0616 49.8524 57.7616 50.9871 57.7616C52.0217 57.7616 52.7391 57.124 52.7391 55.717Z" fill="white"/>
<path d="M55.371 58.2017V53.1215C55.371 52.9135 55.4917 52.8026 55.6883 52.8026H55.8814C56.0642 52.8026 56.1987 52.8893 56.2332 53.0729C56.2815 53.2947 56.3056 53.5027 56.3194 53.7106C56.7471 53.0729 57.4023 52.671 58.2059 52.671C58.4611 52.671 58.6336 52.7091 58.8026 52.768C58.9371 52.8165 58.9715 52.9135 58.9715 53.0244C58.9715 53.0729 58.9612 53.1353 58.9336 53.1942L58.8232 53.4749C58.7612 53.6205 58.6784 53.669 58.5439 53.669C58.506 53.669 58.4577 53.669 58.4094 53.6551C58.3128 53.6309 58.2025 53.617 58.0921 53.617C57.1437 53.617 56.3608 54.265 56.3608 55.5888V58.1948C56.3608 58.4027 56.2401 58.5136 56.0435 58.5136H55.6779C55.4917 58.5205 55.371 58.3992 55.371 58.2017Z" fill="white"/>
<path d="M59.6717 55.6687C59.6717 53.9915 60.865 52.6712 62.5825 52.6712C64.3138 52.6712 65.4691 53.9326 65.4691 55.6687C65.4691 57.3321 64.2758 58.6559 62.5825 58.6559C60.8408 58.6559 59.6717 57.4187 59.6717 55.6687ZM64.4586 55.6687C64.4586 54.494 63.7413 53.5618 62.5825 53.5618C61.3995 53.5618 60.6822 54.494 60.6822 55.6687C60.6822 56.8435 61.3995 57.7618 62.5825 57.7618C63.7413 57.7618 64.4586 56.8435 64.4586 55.6687ZM62.01 51.8741C61.9237 51.8741 61.841 51.8256 61.7651 51.7286L61.6927 51.6073C61.6444 51.5345 61.6202 51.4618 61.6202 51.3994C61.6202 51.3127 61.6685 51.2261 61.7651 51.1672L63.386 50.0652C63.4585 50.0167 63.5205 49.9924 63.5792 49.9924C63.6757 49.9924 63.762 50.0409 63.824 50.138L63.9448 50.3078C63.993 50.3806 64.0172 50.4429 64.0172 50.5053C64.0172 50.6023 63.9551 50.689 63.8585 50.7514L62.2031 51.8152C62.1445 51.8499 62.072 51.8741 62.01 51.8741Z" fill="white"/>
<path d="M66.3353 58.3266C66.3353 58.2642 66.3491 58.2053 66.4077 58.1325L68.308 55.5508L66.5664 53.2013C66.5181 53.1285 66.494 53.0661 66.494 53.0072C66.494 52.8963 66.5905 52.8132 66.763 52.8132H67.1665C67.3355 52.8132 67.4596 52.8617 67.5562 53.0072L68.9564 54.9548L70.3325 53.0072C70.4291 52.8617 70.5532 52.8132 70.7222 52.8132H71.0878C71.2568 52.8132 71.3568 52.8998 71.3568 53.0072C71.3568 53.0696 71.3327 53.1285 71.2844 53.2013L69.5427 55.5508L71.4568 58.1325C71.5189 58.2053 71.5293 58.2677 71.5293 58.3266C71.5293 58.4375 71.4327 58.5206 71.2602 58.5206H70.8464C70.6774 58.5206 70.5532 58.4721 70.4567 58.3266L68.9081 56.185L67.3838 58.3266C67.2872 58.4721 67.163 58.5206 66.994 58.5206H66.6043C66.4353 58.5206 66.3353 58.434 66.3353 58.3266Z" fill="white"/>
<path d="M72.7564 50.9935C72.7564 50.6123 73.0358 50.3212 73.4255 50.3212C73.8049 50.3212 74.0704 50.6158 74.0704 50.9935C74.0704 51.3712 73.8014 51.6658 73.4255 51.6658C73.0358 51.6658 72.7564 51.3712 72.7564 50.9935ZM72.9151 58.2015V53.1212C72.9151 52.9133 73.0358 52.8024 73.2324 52.8024H73.598C73.7945 52.8024 73.9153 52.9237 73.9153 53.1212V58.2015C73.9153 58.4094 73.7945 58.5203 73.598 58.5203H73.2324C73.0358 58.5203 72.9151 58.399 72.9151 58.2015Z" fill="white"/>
<path d="M75.9367 58.2017V53.1215C75.9367 52.9135 76.0574 52.8026 76.254 52.8026H76.4471C76.6299 52.8026 76.7644 52.8893 76.7989 53.0729C76.8472 53.2947 76.8713 53.5027 76.8851 53.7106C77.3128 53.0729 77.9681 52.671 78.8096 52.671C79.7477 52.671 80.4167 53.0764 80.7582 53.8596C81.1858 53.1249 81.9515 52.671 82.8895 52.671C84.3036 52.671 85.0933 53.5408 85.0933 55.2908V58.2052C85.0933 58.4131 84.9726 58.524 84.776 58.524H84.4105C84.2139 58.524 84.0932 58.4027 84.0932 58.2052V55.218C84.0932 54.1541 83.6552 53.565 82.7895 53.565C81.6824 53.565 81.0099 54.3101 81.0099 55.5472V58.2017C81.0099 58.4096 80.8892 58.5205 80.6926 58.5205H80.3271C80.1339 58.5205 80.0098 58.3992 80.0098 58.2017V55.2146C80.0098 54.1507 79.558 53.5616 78.6958 53.5616C77.6128 53.5616 76.93 54.3066 76.93 55.5438V58.1982C76.93 58.4062 76.8092 58.5171 76.6127 58.5171H76.2471C76.0574 58.5205 75.9367 58.3992 75.9367 58.2017Z" fill="white"/>
<path d="M86.6696 56.9403C86.6696 55.8868 87.4732 55.1037 89.0562 55.1037C89.677 55.1037 90.2495 55.2007 90.7496 55.3982V55.2527C90.7496 53.9913 90.0805 53.5512 89.239 53.5512C88.6285 53.5512 88.1319 53.6621 87.6077 54.0294C87.5353 54.0779 87.4732 54.1022 87.4008 54.1022C87.3145 54.1022 87.2421 54.064 87.1697 53.9809L87.049 53.8353C86.9869 53.7626 86.9524 53.6898 86.9524 53.6135C86.9524 53.5269 87.0007 53.4541 87.0869 53.3814C87.7318 52.8546 88.3906 52.671 89.3149 52.671C90.6047 52.671 91.7256 53.468 91.7256 55.1175V57.1621C91.7256 57.4567 91.836 57.7374 91.9567 57.9695C92.0532 58.1532 92.0429 58.2884 91.8463 58.3854L91.5773 58.5205C91.4083 58.6072 91.2738 58.5829 91.1634 58.4339C90.9806 58.1879 90.8599 57.8448 90.8358 57.5883C90.4702 58.1636 89.7632 58.6522 88.7148 58.6522C87.4146 58.6557 86.6696 57.9453 86.6696 56.9403ZM90.753 56.2091V56.1364C90.2185 55.9769 89.7529 55.9146 89.2045 55.9146C88.0353 55.9146 87.6456 56.2923 87.6456 56.9195C87.6456 57.5918 88.1802 57.7893 88.8148 57.7893C90.0081 57.7859 90.7151 57.124 90.753 56.2091Z" fill="white"/>
<path d="M96.0635 55.6685C96.0635 53.9532 97.1705 52.671 98.8398 52.671C99.6675 52.671 100.312 52.9274 100.812 53.565C100.861 53.6274 100.885 53.7002 100.885 53.7591C100.885 53.8457 100.837 53.9324 100.75 54.0051L100.616 54.116C100.53 54.1888 100.471 54.2131 100.409 54.2131C100.337 54.2131 100.25 54.1645 100.178 54.0918C99.8365 53.7383 99.4226 53.565 98.8363 53.565C97.7396 53.565 97.0705 54.4452 97.0705 55.672C97.0705 56.8468 97.7879 57.7651 98.8743 57.7651C99.4709 57.7651 99.9089 57.5572 100.25 57.2037C100.323 57.1171 100.409 57.0685 100.495 57.0685C100.568 57.0685 100.63 57.1067 100.702 57.1656L100.837 57.2869C100.923 57.3596 100.957 57.4463 100.957 57.5329C100.957 57.5953 100.933 57.6681 100.885 57.7408C100.385 58.3785 99.702 58.6592 98.8743 58.6592C97.136 58.6557 96.0635 57.4185 96.0635 55.6685Z" fill="white"/>
<path d="M102.058 55.6685C102.058 53.9913 103.251 52.671 104.968 52.671C106.7 52.671 107.855 53.9324 107.855 55.6685C107.855 57.3319 106.662 58.6557 104.968 58.6557C103.227 58.6557 102.058 57.4185 102.058 55.6685ZM106.845 55.6685C106.845 54.4938 106.127 53.5616 104.968 53.5616C103.785 53.5616 103.068 54.4938 103.068 55.6685C103.068 56.8433 103.785 57.7616 104.968 57.7616C106.127 57.7616 106.845 56.8433 106.845 55.6685Z" fill="white"/>
<path d="M109.476 58.2022V53.1219C109.476 52.914 109.597 52.8031 109.793 52.8031H110C110.183 52.8031 110.304 52.8759 110.352 53.0596C110.414 53.2813 110.425 53.4893 110.438 53.7076C110.852 53.07 111.535 52.668 112.401 52.668C113.815 52.668 114.691 53.4893 114.691 55.2497V58.1987C114.691 58.3963 114.57 58.5175 114.374 58.5175H114.008C113.811 58.5175 113.691 58.3963 113.691 58.1987V55.2012C113.691 54.113 113.18 53.562 112.315 53.562C111.194 53.562 110.476 54.3071 110.476 55.5442V58.1987C110.476 58.4067 110.356 58.5175 110.159 58.5175H109.793C109.6 58.521 109.476 58.3997 109.476 58.2022Z" fill="white"/>
<path d="M120.892 60.5755V57.6507C120.43 58.2641 119.709 58.6557 118.857 58.6557C117.26 58.6557 116.201 57.4185 116.201 55.6581C116.201 53.8838 117.333 52.671 118.929 52.671C119.781 52.671 120.464 53.0487 120.902 53.6517C120.916 53.468 120.94 53.2705 120.974 53.0764C121.012 52.8927 121.144 52.8061 121.326 52.8061H121.571C121.768 52.8061 121.888 52.9274 121.888 53.1249V60.579C121.888 60.7765 121.768 60.8978 121.571 60.8978H121.206C121.012 60.8943 120.892 60.773 120.892 60.5755ZM120.892 55.8175V55.4987C120.892 54.2512 120.136 53.565 119.005 53.565C117.971 53.565 117.215 54.2131 117.215 55.62C117.215 57.0166 117.898 57.7616 118.933 57.7616C120.064 57.7616 120.892 57.0651 120.892 55.8175Z" fill="white"/>
<path d="M123.854 56.0742V53.1251C123.854 52.9311 123.975 52.8063 124.171 52.8063H124.537C124.733 52.8063 124.854 52.9276 124.854 53.1251V56.1712C124.854 57.2489 125.354 57.7757 126.206 57.7757C127.313 57.7757 128.01 57.0653 128.01 55.8177V53.1251C128.01 52.9172 128.13 52.8063 128.327 52.8063H128.693C128.886 52.8063 129.01 52.9276 129.01 53.1251V57.1658C129.01 57.4603 129.12 57.741 129.241 57.9732C129.338 58.1569 129.327 58.292 129.131 58.389L128.862 58.5242C128.693 58.6108 128.558 58.5866 128.448 58.4376C128.265 58.1915 128.144 57.8242 128.12 57.5678C127.692 58.2158 126.961 58.6559 126.123 58.6559C124.716 58.6559 123.854 57.8242 123.854 56.0742Z" fill="white"/>
<path d="M130.859 50.9935C130.859 50.6123 131.139 50.3212 131.528 50.3212C131.904 50.3212 132.173 50.6158 132.173 50.9935C132.173 51.3712 131.904 51.6658 131.528 51.6658C131.139 51.6658 130.859 51.3712 130.859 50.9935ZM131.018 58.2015V53.1212C131.018 52.9133 131.139 52.8024 131.335 52.8024H131.701C131.894 52.8024 132.018 52.9237 132.018 53.1212V58.2015C132.018 58.4094 131.897 58.5203 131.701 58.5203H131.335C131.139 58.5203 131.018 58.399 131.018 58.2015Z" fill="white"/>
<path d="M133.77 57.9071C133.697 57.8343 133.659 57.772 133.659 57.6992C133.659 57.6264 133.697 57.5398 133.756 57.467L133.853 57.3457C133.925 57.2591 133.997 57.2244 134.084 57.2244C134.146 57.2244 134.218 57.2487 134.304 57.3111C134.756 57.6541 135.291 57.765 135.911 57.765C136.643 57.765 137.119 57.5328 137.119 56.9576C137.119 56.3719 136.584 56.1363 135.767 56.0289C134.684 55.8833 133.77 55.5888 133.77 54.3135C133.77 53.409 134.611 52.6744 135.949 52.6744C136.791 52.6744 137.374 52.9204 137.864 53.3709C137.936 53.4437 137.974 53.5165 137.974 53.5927C137.974 53.6655 137.936 53.7521 137.877 53.8249L137.757 53.96C137.684 54.0328 137.612 54.0709 137.526 54.0709C137.453 54.0709 137.381 54.0467 137.305 53.9843C136.891 53.6551 136.477 53.5684 135.905 53.5684C135.029 53.5684 134.746 53.9358 134.746 54.3412C134.746 54.9165 135.198 55.0378 136.084 55.1729C137.108 55.3323 138.129 55.6615 138.129 56.8987C138.129 57.9036 137.35 58.6626 135.984 58.6626C134.987 58.6556 134.294 58.3853 133.77 57.9071Z" fill="white"/>
<path d="M140.226 56.0742V53.7004H139.374C139.167 53.7004 139.057 53.5791 139.057 53.3816V53.1251C139.057 52.9311 139.177 52.8063 139.374 52.8063H140.226V51.5102C140.226 51.3023 140.346 51.1914 140.543 51.1914H140.909C141.102 51.1914 141.226 51.3127 141.226 51.5102V52.8063H143.333C143.53 52.8063 143.65 52.9276 143.65 53.1251V53.3816C143.65 53.5756 143.53 53.7004 143.333 53.7004H141.226V56.1469C141.226 57.2247 141.654 57.7618 142.516 57.7618C142.795 57.7618 143.088 57.6752 143.333 57.54C143.406 57.5019 143.478 57.4776 143.54 57.4776C143.626 57.4776 143.709 57.5262 143.771 57.6232L143.868 57.7826C143.916 57.8554 143.94 57.9281 143.94 58.0044C143.94 58.0771 143.902 58.1395 143.83 58.1984C143.45 58.493 142.988 58.6524 142.454 58.6524C141.067 58.6559 140.226 57.8346 140.226 56.0742Z" fill="white"/>
<path d="M144.733 56.9403C144.733 55.8868 145.537 55.1037 147.12 55.1037C147.74 55.1037 148.313 55.2007 148.813 55.3982V55.2527C148.813 53.9913 148.144 53.5512 147.302 53.5512C146.692 53.5512 146.195 53.6621 145.671 54.0294C145.599 54.0779 145.537 54.1022 145.464 54.1022C145.378 54.1022 145.306 54.064 145.233 53.9809L145.112 53.8353C145.05 53.7626 145.016 53.6898 145.016 53.6135C145.016 53.5269 145.064 53.4541 145.15 53.3814C145.795 52.8546 146.454 52.671 147.378 52.671C148.668 52.671 149.789 53.468 149.789 55.1175V57.1621C149.789 57.4567 149.899 57.7374 150.02 57.9695C150.117 58.1532 150.106 58.2884 149.91 58.3854L149.641 58.5205C149.472 58.6072 149.337 58.5829 149.227 58.4339C149.044 58.1879 148.923 57.8448 148.899 57.5883C148.534 58.1636 147.827 58.6522 146.778 58.6522C145.478 58.6557 144.733 57.9453 144.733 56.9403ZM148.816 56.2091V56.1364C148.282 55.9769 147.816 55.9146 147.268 55.9146C146.099 55.9146 145.709 56.2923 145.709 56.9195C145.709 57.5918 146.244 57.7893 146.878 57.7893C148.071 57.7859 148.779 57.124 148.816 56.2091Z" fill="white"/>
<path d="M161.357 36.5021C158.029 36.5021 155.959 34.1387 155.959 30.5486C155.959 26.9585 158.029 24.5951 161.357 24.5951C164.602 24.5951 166.671 26.9585 166.671 30.5486C166.671 34.1387 164.481 36.5021 161.357 36.5021ZM135.708 36.5021C132.38 36.5021 130.19 34.1387 130.19 30.5486C130.19 26.9585 132.38 24.5951 135.708 24.5951C138.953 24.5951 141.147 26.9585 141.147 30.5486C141.147 34.1387 138.957 36.5021 135.708 36.5021ZM82.4235 29.6511C82.5442 26.4282 84.6963 24.3906 87.3346 24.3906C89.4867 24.3906 90.7835 25.6139 91.2318 27.5302L82.4235 29.6511ZM112.618 19.4594C109.452 19.4594 107.058 20.6826 105.596 22.5193L104.786 20.6029C104.541 20.0727 104.137 19.7886 103.568 19.7886H100.688C100.04 19.7886 99.6331 20.1559 99.6331 20.849V40.2586C99.6331 40.9101 99.9987 41.319 100.688 41.319H104.989C105.638 41.319 106.045 40.9101 106.045 40.2586V29.9387C106.045 26.6778 108.034 24.4738 110.997 24.4738C113.715 24.4738 115.298 26.1857 115.298 29.6926V40.2551C115.298 40.9066 115.663 41.3155 116.353 41.3155H120.654C121.302 41.3155 121.709 40.9482 121.709 40.2551V29.3253C121.709 23.1292 118.34 19.4594 112.618 19.4594ZM87.4553 19.4594C81.3682 19.4594 76.457 24.4357 76.457 30.4689C76.457 37.2368 80.8405 41.6413 87.4553 41.6413C90.3351 41.6413 93.5425 40.6225 95.7325 38.9106C96.2602 38.5016 96.3016 37.9333 95.8946 37.4031L94.1081 35.1194C93.7012 34.5892 93.1735 34.5476 92.6079 34.915C91.187 35.8125 89.6453 36.464 87.983 36.464C85.5895 36.464 84.0479 35.4868 83.1926 33.6501L96.7879 30.4689C97.3983 30.3476 97.7225 29.9387 97.6397 29.204C96.9534 23.046 93.4632 19.4594 87.4553 19.4594ZM161.033 19.4594C154.173 19.6222 149.71 23.9054 149.71 30.5521C149.71 37.1987 153.89 41.6448 160.301 41.6448C163.102 41.6448 165.537 40.5428 167.037 38.5848L167.847 40.5012C168.092 41.0314 168.496 41.3155 169.065 41.3155H171.945C172.593 41.3155 173 40.9482 173 40.2551V31.0407C173.003 23.9436 168.216 19.2965 161.033 19.4594ZM146.382 12.241H142.081C141.433 12.241 141.026 12.6499 141.026 13.3014V21.9059C139.322 20.194 137.008 19.4594 134.694 19.4594C128.2 19.4594 123.899 23.9054 123.899 30.5521C123.899 37.1987 128.2 41.6448 134.611 41.6448C137.532 41.6448 139.926 40.4631 141.471 38.5848L142.281 40.5012C142.526 41.0314 142.93 41.3155 143.499 41.3155H146.379C147.027 41.3155 147.434 40.9066 147.434 40.2551V13.3014C147.437 12.6499 147.072 12.241 146.382 12.241ZM81.7337 16.9712V13.3014C81.7337 12.6499 81.3268 12.241 80.6784 12.241H58.4783C57.8299 12.241 57.423 12.6083 57.423 13.3014V16.9712C57.423 17.6227 57.7885 18.0316 58.4783 18.0316H66.3106V40.2551C66.3106 40.9066 66.7176 41.3155 67.3659 41.3155H71.7494C72.3978 41.3155 72.8047 40.9066 72.8047 40.2551V18.0316H80.6784C81.3302 18.0316 81.7337 17.6643 81.7337 16.9712Z" fill="white"/>
<path fill-rule="evenodd" clip-rule="evenodd" d="M26.0559 11.3821L49.5838 17.7965C50.2804 17.9871 50.9633 17.4603 50.9633 16.7361V10.3806C50.9633 9.36866 50.3253 8.47113 49.3734 8.14192L26.1938 0.119556C25.7317 -0.0398519 25.2316 -0.0398519 24.7695 0.119556C21.3448 1.30472 6.50793 6.44042 1.58646 8.14192C0.638033 8.47113 0 9.36866 0 10.3806V16.7361C0 17.4603 0.686316 17.9871 1.37953 17.7965L24.9074 11.3821C25.2833 11.2816 25.6799 11.2816 26.0559 11.3821ZM14.6299 18.0598V39.7116C14.6299 40.5848 15.3335 41.2918 16.2026 41.2918H34.7642C35.6333 41.2918 36.3368 40.5848 36.3368 39.7116V17.9975C36.3368 17.5262 36.023 17.1103 35.5677 16.9856L25.9834 14.345C25.6558 14.2549 25.3075 14.2549 24.9798 14.345L15.4576 16.9683C14.9679 17.1034 14.6299 17.5504 14.6299 18.0598Z" fill="white"/>
</svg>
