<svg width="133" height="32" viewBox="0 0 133 32" fill="none" xmlns="http://www.w3.org/2000/svg">
<path d="M124.049 28.0484C121.49 28.0484 119.899 26.2323 119.899 23.4737C119.899 20.715 121.49 18.899 124.049 18.899C126.544 18.899 128.135 20.715 128.135 23.4737C128.135 26.2323 126.451 28.0484 124.049 28.0484ZM104.33 28.0484C101.772 28.0484 100.088 26.2323 100.088 23.4737C100.088 20.715 101.772 18.899 104.33 18.899C106.825 18.899 108.512 20.715 108.512 23.4737C108.512 26.2323 106.828 28.0484 104.33 28.0484ZM63.3661 22.784C63.4589 20.3076 65.1133 18.7419 67.1417 18.7419C68.7961 18.7419 69.7931 19.6818 70.1378 21.1544L63.3661 22.784ZM86.5791 14.9527C84.1452 14.9527 82.3051 15.8927 81.1809 17.3039L80.5578 15.8314C80.3695 15.424 80.0593 15.2057 79.6218 15.2057H77.4079C76.9095 15.2057 76.5966 15.4879 76.5966 16.0205V30.9349C76.5966 31.4355 76.8776 31.7497 77.4079 31.7497H80.7142C81.2127 31.7497 81.5256 31.4355 81.5256 30.9349V23.005C81.5256 20.4993 83.0554 18.8058 85.333 18.8058C87.4223 18.8058 88.6393 20.1212 88.6393 22.816V30.9322C88.6393 31.4328 88.9203 31.747 89.4506 31.747H92.7569C93.2554 31.747 93.5683 31.4648 93.5683 30.9322V22.5337C93.5683 17.7726 90.9778 14.9527 86.5791 14.9527ZM67.2345 14.9527C62.5547 14.9527 58.7791 18.7765 58.7791 23.4124C58.7791 28.6129 62.1491 31.9973 67.2345 31.9973C69.4484 31.9973 71.9142 31.2145 73.5978 29.899C74.0035 29.5848 74.0353 29.1481 73.7225 28.7407L72.349 26.9859C72.0362 26.5785 71.6305 26.5466 71.1957 26.8288C70.1033 27.5185 68.9181 28.0191 67.6401 28.0191C65.8001 28.0191 64.6149 27.2682 63.9573 25.8569L74.4092 23.4124C74.8785 23.3192 75.1277 23.005 75.0641 22.4405C74.5364 17.7087 71.8532 14.9527 67.2345 14.9527ZM123.8 14.9527C118.526 15.0778 115.095 18.3691 115.095 23.4763C115.095 28.5836 118.309 32 123.238 32C125.39 32 127.262 31.1532 128.416 29.6487L129.039 31.1213C129.227 31.5287 129.537 31.747 129.975 31.747H132.189C132.687 31.747 133 31.4648 133 30.9322V23.8518C133.003 18.3984 129.323 14.8275 123.8 14.9527ZM112.536 9.40605H109.23C108.732 9.40605 108.419 9.72026 108.419 10.2209V16.8326C107.109 15.5172 105.33 14.9527 103.551 14.9527C98.5582 14.9527 95.2519 18.3691 95.2519 23.4763C95.2519 28.5836 98.5582 32 103.487 32C105.733 32 107.573 31.092 108.761 29.6487L109.384 31.1213C109.572 31.5287 109.882 31.747 110.32 31.747H112.534C113.032 31.747 113.345 31.4328 113.345 30.9322V10.2209C113.348 9.72026 113.067 9.40605 112.536 9.40605ZM62.8358 13.0408V10.2209C62.8358 9.72026 62.5229 9.40605 62.0244 9.40605H44.9573C44.4589 9.40605 44.146 9.68831 44.146 10.2209V13.0408C44.146 13.5414 44.427 13.8556 44.9573 13.8556H50.9787V30.9322C50.9787 31.4328 51.2915 31.747 51.79 31.747H55.1599C55.6584 31.747 55.9713 31.4328 55.9713 30.9322V13.8556H62.0244C62.5256 13.8556 62.8358 13.5733 62.8358 13.0408Z" fill="white"/>
<path fill-rule="evenodd" clip-rule="evenodd" d="M20.0314 8.746L38.1193 13.6749C38.6549 13.8213 39.1799 13.4166 39.1799 12.86V7.97645C39.1799 7.19891 38.6894 6.50924 37.9576 6.25627L20.1374 0.0918669C19.7822 -0.0306223 19.3977 -0.0306223 19.0424 0.0918669C16.4096 1.00255 5.00321 4.94883 1.21965 6.25627C0.490511 6.50924 0 7.19891 0 7.97645V12.86C0 13.4166 0.52763 13.8213 1.06056 13.6749L19.1485 8.746C19.4375 8.66878 19.7424 8.66878 20.0314 8.746ZM11.2473 13.8772V30.5145C11.2473 31.1855 11.7882 31.7287 12.4563 31.7287H26.7262C27.3944 31.7287 27.9352 31.1855 27.9352 30.5145V13.8293C27.9352 13.4672 27.694 13.1476 27.344 13.0518L19.9757 11.0227C19.7238 10.9535 19.456 10.9535 19.2042 11.0227L11.8836 13.0384C11.5071 13.1423 11.2473 13.4858 11.2473 13.8772Z" fill="white"/>
</svg>
