<svg width="24" height="24" viewBox="0 0 24 24" fill="none" xmlns="http://www.w3.org/2000/svg">
<path fill-rule="evenodd" clip-rule="evenodd" d="M12.2041 8.09148L20.5659 10.5381C20.8135 10.6108 21.0562 10.4099 21.0562 10.1337V7.70947C21.0562 7.32351 20.8295 6.98116 20.4912 6.85559L12.2531 3.7956C12.0888 3.7348 11.9111 3.7348 11.7469 3.7956C10.5297 4.24766 5.25666 6.20658 3.50756 6.85559C3.17048 6.98116 2.94373 7.32351 2.94373 7.70947V10.1337C2.94373 10.4099 3.18764 10.6108 3.43401 10.5381L11.7959 8.09148C11.9295 8.05314 12.0705 8.05314 12.2041 8.09148ZM8.14324 10.6386V18.8973C8.14324 19.2304 8.39329 19.5 8.70217 19.5H15.299C15.6079 19.5 15.8579 19.2304 15.8579 18.8973V10.6148C15.8579 10.435 15.7464 10.2764 15.5846 10.2288L12.1783 9.22162C12.0619 9.18726 11.9381 9.18726 11.8216 9.22162L8.43741 10.2222C8.26336 10.2738 8.14324 10.4443 8.14324 10.6386Z" fill="#F4F4F4"/>
</svg>
