<svg width="24" height="24" viewBox="0 0 24 24" fill="none" xmlns="http://www.w3.org/2000/svg">
<path fill-rule="evenodd" clip-rule="evenodd" d="M13.7907 4.69808H15.9556C16.1643 5.74609 16.833 6.64537 17.7595 7.20722C17.7598 7.20758 17.7602 7.20794 17.7605 7.2083C18.4054 7.59927 19.1744 7.82737 19.9999 7.82737V8.4397L20 10.5777C18.4666 10.5777 17.0456 10.1214 15.8858 9.34698V14.937C15.8858 17.7288 13.4442 20 10.4428 20C9.28311 20 8.20763 19.6598 7.32359 19.0824C7.32312 19.0819 7.32264 19.0814 7.32208 19.0809C5.9193 18.1642 5 16.6488 5 14.9365C5 12.1448 7.44167 9.87346 10.443 9.87346C10.692 9.87346 10.9361 9.89254 11.1764 9.92286V10.5745L11.1764 12.7316C10.9442 12.664 10.6987 12.6247 10.4428 12.6247C9.07219 12.6247 7.9571 13.6621 7.9571 14.937C7.9571 15.8249 8.49862 16.5963 9.28982 16.9835C9.63479 17.1524 10.0267 17.2493 10.4427 17.2493C11.7818 17.2493 12.8741 16.2585 12.9238 15.024L12.9285 4H15.8857C15.8857 4.23845 15.9105 4.4715 15.9556 4.69808H13.7907Z" fill="#F4F4F4"/>
</svg>
